<svg height="606" width="720" xmlns="http://www.w3.org/2000/svg">
<rect height="606" fill="#555" width="720"></rect>
<text fill="#7f7" font-family="Courier New" font-size="12" xml:space="preserve">
<tspan x="10" y="26">3 megabytes installed</tspan>
<tspan x="10" y="42"></tspan>
<tspan x="10" y="58">node_modules</tspan>
<tspan x="10" y="74">└─┬ glue@4.1.0 </tspan>
<tspan x="10" y="90">  ├─┬ hapi@16.1.1 </tspan>
<tspan x="10" y="106">  │ ├── accept@2.1.3 </tspan>
<tspan x="10" y="122">  │ ├── ammo@2.0.3 </tspan>
<tspan x="10" y="138">  │ ├── b64@3.0.2 </tspan>
<tspan x="10" y="154">  │ ├── boom@4.2.0 </tspan>
<tspan x="10" y="170">  │ ├── call@4.0.0 </tspan>
<tspan x="10" y="186">  │ ├── catbox@7.1.3 </tspan>
<tspan x="10" y="202">  │ ├── catbox-memory@2.0.4 </tspan>
<tspan x="10" y="218">  │ ├── content@3.0.3 </tspan>
<tspan x="10" y="234">  │ ├── cryptiles@3.1.1 </tspan>
<tspan x="10" y="250">  │ ├── heavy@4.0.3 </tspan>
<tspan x="10" y="266">  │ ├── hoek@4.1.0 </tspan>
<tspan x="10" y="282">  │ ├── iron@4.0.4 </tspan>
<tspan x="10" y="298">  │ ├── isemail@2.2.1 </tspan>
<tspan x="10" y="314">  │ ├── items@2.1.1 </tspan>
<tspan x="10" y="330">  │ ├── joi@10.1.0 </tspan>
<tspan x="10" y="346">  │ ├── mime-db@1.25.0 </tspan>
<tspan x="10" y="362">  │ ├── mimos@3.0.3 </tspan>
<tspan x="10" y="378">  │ ├── nigel@2.0.2 </tspan>
<tspan x="10" y="394">  │ ├── pez@2.1.4 </tspan>
<tspan x="10" y="410">  │ ├── podium@1.2.5 </tspan>
<tspan x="10" y="426">  │ ├── shot@3.4.0 </tspan>
<tspan x="10" y="442">  │ ├── statehood@5.0.1 </tspan>
<tspan x="10" y="458">  │ ├─┬ subtext@4.3.0 </tspan>
<tspan x="10" y="474">  │ │ └── wreck@10.0.0 </tspan>
<tspan x="10" y="490">  │ ├── topo@2.0.2 </tspan>
<tspan x="10" y="506">  │ └── vise@2.0.2 </tspan>
<tspan x="10" y="522">  ├── hoek@4.1.1 </tspan>
<tspan x="10" y="538">  ├── items@2.1.1 </tspan>
<tspan x="10" y="554">  └─┬ joi@10.4.1 </tspan>
<tspan x="10" y="570">    ├── isemail@2.2.1 </tspan>
<tspan x="10" y="586">    └── topo@2.0.2</tspan>
</text>
</svg>
